<?xml version="1.0" encoding="utf-8"?>
<!-- Generator: Adobe Illustrator 26.0.3, SVG Export Plug-In . SVG Version: 6.00 Build 0)  -->
<svg version="1.0" id="katman_1" xmlns="http://www.w3.org/2000/svg" xmlns:xlink="http://www.w3.org/1999/xlink" x="0px" y="0px"
	 viewBox="0 0 600 450" style="enable-background:new 0 0 600 450;" xml:space="preserve">
<style type="text/css">
	.st0{clip-path:url(#SVGID_00000080168344222949949670000000953927154911207044_);}
	.st1{fill:#333333;}
</style>
<g>
	<defs>
		<rect id="SVGID_1_" x="73.8" y="182.4" width="452.6" height="86"/>
	</defs>
	<clipPath id="SVGID_00000060009931627309689510000014620170414485232274_">
		<use xlink:href="#SVGID_1_"  style="overflow:visible;"/>
	</clipPath>
	<g style="clip-path:url(#SVGID_00000060009931627309689510000014620170414485232274_);">
		<path class="st1" d="M195,252.1v16.3h-10.2v-52.9H195v2.5c3-2,6.6-3,10.2-3.1c11.6,0,20.1,9.2,20.1,20.2c0,11-8.4,20.2-20.1,20.2
			C201.5,255.3,198,254.2,195,252.1L195,252.1z M195,230.3v9.4c0.8,1.7,2.1,3.2,3.6,4.2c1.6,1.1,3.4,1.7,5.3,1.8
			c1.9,0.1,3.8-0.3,5.5-1.1c1.7-0.9,3.1-2.2,4.1-3.8c1-1.6,1.6-3.4,1.6-5.3c0.1-1.9-0.4-3.8-1.3-5.4c-0.9-1.7-2.3-3-3.9-4
			c-1.6-1-3.5-1.5-5.4-1.5c-2,0-3.9,0.5-5.6,1.5C197.2,227.1,195.9,228.5,195,230.3L195,230.3z"/>
		<path class="st1" d="M230.8,204.8c0-0.8,0.1-1.5,0.4-2.3c0.3-0.7,0.7-1.4,1.2-1.9c0.5-0.6,1.2-1,1.9-1.3c0.7-0.3,1.5-0.4,2.3-0.4
			c0.8,0,1.6,0.1,2.3,0.4c0.7,0.3,1.4,0.7,1.9,1.3c0.6,0.6,1,1.2,1.3,1.9c0.3,0.7,0.5,1.5,0.4,2.3c0,1.6-0.7,3.1-1.8,4.2
			c-1.1,1.1-2.6,1.7-4.2,1.7c-0.8,0-1.5-0.2-2.2-0.5c-0.7-0.3-1.3-0.7-1.9-1.3c-0.5-0.6-1-1.2-1.2-1.9
			C230.9,206.3,230.7,205.6,230.8,204.8z M231.4,215.5h10.4v39.2h-10.4V215.5z"/>
		<path class="st1" d="M247.9,234.9c0-2.6,0.5-5.3,1.5-7.7c1-2.4,2.5-4.7,4.4-6.5c1.9-1.9,4.1-3.3,6.5-4.3c2.4-1,5.1-1.5,7.7-1.4
			c3.6,0,7.2,0.9,10.3,2.6v-2.1h10.1v37c0,10.2-8.8,15.7-19.9,15.7c-7.2,0-14.1-2.1-18.6-5.7l4.2-7.3c4.3,2.8,9.3,4.2,14.4,4.1
			c7.1,0,9.4-2.8,9.7-7.4c-3.1,2-6.6,3-10.3,3.1C256.2,255,247.9,246.2,247.9,234.9z M278.3,239.3v-8.7c-0.9-1.8-2.2-3.4-3.9-4.5
			c-1.7-1.1-3.7-1.7-5.7-1.7c-1.4,0-2.8,0.2-4.1,0.8c-1.3,0.5-2.5,1.3-3.5,2.3c-1,1-1.8,2.1-2.3,3.4c-0.5,1.3-0.8,2.7-0.8,4
			c0,6.1,4.6,10.3,10.6,10.3c2,0.1,4-0.5,5.7-1.5C276,242.6,277.4,241.1,278.3,239.3L278.3,239.3z"/>
		<path class="st1" d="M294.5,234.9c0-2.6,0.5-5.3,1.5-7.7c1-2.4,2.5-4.7,4.4-6.5c1.9-1.9,4.1-3.3,6.5-4.3c2.4-1,5.1-1.5,7.7-1.4
			c3.6,0,7.2,0.9,10.4,2.6v-2.1h10.1v37c0,10.2-8.8,15.7-19.9,15.7c-7.2,0-14.1-2.1-18.6-5.7l4.2-7.3c4.3,2.8,9.3,4.2,14.4,4.1
			c7.1,0,9.4-2.8,9.7-7.4c-3.1,2-6.6,3-10.3,3.1C302.9,255,294.5,246.2,294.5,234.9z M325,239.3v-8.7c-0.9-1.8-2.2-3.4-3.9-4.5
			c-1.7-1.1-3.7-1.7-5.7-1.7c-1.4,0-2.8,0.2-4.1,0.8c-1.3,0.5-2.5,1.3-3.5,2.3c-1,1-1.8,2.1-2.3,3.4c-0.5,1.3-0.8,2.7-0.8,4
			c0,6.1,4.6,10.3,10.6,10.3c2,0.1,4-0.5,5.7-1.5C322.8,242.6,324.1,241.1,325,239.3z"/>
		<path class="st1" d="M350,215.5l10.3,26.1l10.6-26.1h10.8L359,268.4h-9.6l5.7-14.1l-16.5-38.8H350z"/>
		<path class="st1" d="M379.7,215.5h11l10,26.5l9.9-26.5h10.8l-15.7,39.2h-10.3L379.7,215.5z"/>
		<path class="st1" d="M422,234.8c0-11,7.9-20.2,20.2-20.2c11.4,0,20.1,8.6,20.3,19.9c0.1,1,0.1,1.9,0,2.9h-30.9
			c0.3,5.5,5.6,9.1,11.3,9.1c4.7,0,7.4-1.3,10.7-4l5.6,5.9c-4.5,4.8-9.1,7-16.3,7C429.7,255.4,422,245.5,422,234.8z M432.2,230.1
			H452c-1-3.7-4.5-6.9-9.9-6.9C435.9,223.2,433.3,226.4,432.2,230.1z"/>
		<path class="st1" d="M464.7,250.4l5-8.1c4.5,3,9.8,4.6,15.2,4.7c5.1,0,7.7-1.3,7.7-3.5c0-1.5-1.2-2.5-3.8-3.1l-10.8-2.3
			c-7.9-1.7-11.5-5.4-11.5-11.6c0-6.5,5.5-12,16.9-12c6.9,0,13,2,17.2,4.6L496,227c-3.4-1.8-8-3.8-12.9-3.8c-4.4,0-6.9,1.1-6.9,3.1
			c0,1.3,0.9,2.2,3.4,2.6l9.1,1.7c9.8,1.9,13.6,6.3,13.6,12.2c0,8.5-8.5,13-17.8,13C477.6,255.8,470.7,254,464.7,250.4L464.7,250.4z
			"/>
		<path class="st1" d="M504.4,215.5h5.8v-10.8l10.2-6.6v17.4h6v8.9h-6v30.3h-10.2v-30.3h-5.8L504.4,215.5L504.4,215.5z"/>
		<path class="st1" d="M159.2,221.8c-0.2-2.5-0.6-5-1.2-7.4c-2.9-10.8-9.1-19.2-18.4-25.3c-5.9-3.8-12.7-6.1-19.7-6.6
			c-2.9-0.2-5.9-0.1-8.8,0.2c-3.1,0.4-6.1,1.1-9.1,2.2c-7.8,2.8-14.6,7.9-19.6,14.5c-5,6.6-7.9,14.6-8.4,22.9
			c-0.1,1.5-0.1,3.1-0.1,4.6v37.2c0,1,0.4,1.9,1.1,2.6c0.7,0.7,1.6,1.1,2.6,1.1h14.4c0.9,0,1.8-0.3,2.4-0.9c0.7-0.6,1.1-1.4,1.2-2.3
			l0,0c0.1-0.3,0.1-0.7,0.1-1.1v-0.9c0-0.1,0-0.1,0-0.2v-0.1c0.1,0,0.2,0.1,0.3,0.1c5.4,3,11.3,4.7,17.4,5.2
			c2.5,0.2,4.9,0.2,7.4-0.1c5.8-0.5,11.4-2.2,16.4-5c5.1-2.8,9.5-6.6,13.1-11.1c5.1-6.4,8.2-14.1,8.9-22.2
			C159.4,226.7,159.4,224.2,159.2,221.8L159.2,221.8z M124.2,245.5c0,0.1-0.1,0.2-0.2,0.3c-0.1,0.1-0.2,0.1-0.4,0.1h-14.2
			c-0.1,0-0.3,0-0.4-0.1c-0.1-0.1-0.2-0.2-0.2-0.3v-0.1v-0.5c0-0.6,0.1-1.3,0.2-1.9c0.1-0.2,0.1-0.5,0.2-0.7
			c0.1-0.2,0.2-0.5,0.3-0.7c0.1-0.2,0.2-0.4,0.4-0.6l0.2-0.3c0.1-0.2,0.3-0.4,0.4-0.6c0.2-0.2,0.3-0.4,0.5-0.6
			c0.9-0.8,1.9-1.5,3-1.8c-1-0.5-1.8-1.4-2.2-2.4c-0.4-1-0.5-2.2-0.3-3.2c0.3-1.1,0.9-2,1.8-2.7c0.9-0.7,2-1.1,3.1-1.1
			c1.3,0,2.6,0.5,3.6,1.5c0.5,0.6,1,1.2,1.2,2c0.2,0.7,0.3,1.5,0.2,2.3c-0.1,0.8-0.4,1.5-0.8,2.1c-0.4,0.6-1,1.2-1.7,1.5
			c1.5,0.5,2.9,1.5,3.8,2.8c0.9,1.3,1.4,2.9,1.4,4.5C124.2,245.1,124.2,245.3,124.2,245.5z M148.6,214.7H84.6c-0.1,0-0.2,0-0.3-0.1
			c-0.1-0.1-0.2-0.1-0.3-0.2c-0.1-0.1-0.1-0.2-0.1-0.3c0-0.1,0-0.2,0-0.4c2.4-6.8,6.8-12.6,12.7-16.8c5.9-4.2,12.9-6.4,20.1-6.4
			c7.2,0,14.2,2.2,20.1,6.4s10.3,10,12.7,16.8c0,0.1,0,0.2,0,0.4c0,0.1-0.1,0.2-0.1,0.3c-0.1,0.1-0.2,0.2-0.3,0.2
			C148.9,214.6,148.8,214.7,148.6,214.7L148.6,214.7z"/>
	</g>
</g>
</svg>
